<?xml version="1.0" encoding="utf-8"?>
<!-- Generator: Adobe Illustrator 19.2.1, SVG Export Plug-In . SVG Version: 6.00 Build 0)  -->
<svg version="1.1" id="Layer_1" xmlns="http://www.w3.org/2000/svg" xmlns:xlink="http://www.w3.org/1999/xlink" x="0px" y="0px"
	 viewBox="0 0 200 200" style="enable-background:new 0 0 200 200;" xml:space="preserve">
<style type="text/css">
	.st0{clip-path:url(#SVGID_2_);}
	.st1{fill:#7AB6C0;}
	.st2{fill:#F3F3F3;}
	.st3{fill:#C42228;}
	.st4{fill:#2B2B2A;}
	.st5{fill:#E6E5E4;}
	.st6{opacity:0.3;}
	.st7{fill:#CDCCCB;}
	.st8{fill:#767677;}
	.st9{fill:#E84757;}
	.st10{fill:#F6D95F;}
	.st11{fill:#F4DE85;}
	.st12{fill:#2BA6DE;}
	.st13{fill:#6AC8EB;}
	.st14{fill:#B7CA49;}
	.st15{fill:#D5DF7D;}
	.st16{fill:#3FA0B7;}
	.st17{fill:#1B777F;}
	.st18{fill:#BED9E2;}
	.st19{fill:#9FC1CF;}
	.st20{fill:#E57E8A;}
	.st21{opacity:0.4;fill:#F4ABB9;}
	.st22{fill:#DDD2BB;}
	.st23{fill:#FCB717;}
	.st24{fill:#FFC93C;}
</style>
<g>
	<defs>
		<circle id="SVGID_1_" cx="100" cy="100" r="100"/>
	</defs>
	<clipPath id="SVGID_2_">
		<use xlink:href="#SVGID_1_"  style="overflow:visible;"/>
	</clipPath>
	<g class="st0">
		<circle class="st1" cx="100" cy="100" r="146.4"/>
		<g>
			<g>
				<circle class="st2" cx="57.7" cy="83.6" r="50.2"/>
				<circle class="st2" cx="21.5" cy="117" r="12.3"/>
				<circle class="st2" cx="4.6" cy="136.4" r="7.3"/>
				<g>
					<g>
						<g>
							<path class="st3" d="M57,63.1h-1.5v-4.7c0-1.3,1-2.3,2.3-2.3s2.3,1,2.3,2.3V62h-1.5v-3.6c0-0.4-0.3-0.8-0.8-0.8
								c-0.4,0-0.8,0.3-0.8,0.8V63.1z"/>
						</g>
						<g>
							<path class="st4" d="M88.5,106.5H25c-0.9,0-1.7-0.7-1.7-1.7V59.3c0-0.9,0.7-1.7,1.7-1.7h63.6c0.9,0,1.7,0.7,1.7,1.7v45.5
								C90.2,105.8,89.5,106.5,88.5,106.5z"/>
							<path class="st2" d="M56.8,104.8H26.1c-0.5,0-1-0.4-1-1V60.4c0-0.5,0.4-1,1-1h30.7V104.8z"/>
							<path class="st5" d="M87.5,104.8H56.8V59.4h30.7c0.5,0,1,0.4,1,1v43.4C88.4,104.3,88,104.8,87.5,104.8z"/>
							<g class="st6">
								<rect x="25.1" y="63.5" class="st7" width="31.7" height="0.6"/>
								<rect x="25.1" y="66.9" class="st7" width="31.7" height="0.6"/>
								<rect x="25.1" y="70.3" class="st7" width="31.7" height="0.6"/>
								<rect x="25.1" y="73.7" class="st7" width="31.7" height="0.6"/>
								<rect x="25.1" y="77.1" class="st7" width="31.7" height="0.6"/>
								<rect x="25.1" y="80.5" class="st7" width="31.7" height="0.6"/>
								<rect x="25.1" y="83.9" class="st7" width="31.7" height="0.6"/>
								<rect x="25.1" y="87.3" class="st7" width="31.7" height="0.6"/>
								<rect x="25.1" y="90.8" class="st7" width="31.7" height="0.6"/>
								<rect x="25.1" y="94.2" class="st7" width="31.7" height="0.6"/>
								<rect x="25.1" y="97.6" class="st7" width="31.7" height="0.6"/>
								<rect x="25.1" y="101" class="st7" width="31.7" height="0.6"/>
							</g>
							<g class="st6">
								<rect x="56.8" y="63.5" class="st8" width="31.7" height="0.6"/>
								<rect x="56.8" y="66.9" class="st8" width="31.7" height="0.6"/>
								<rect x="56.8" y="70.3" class="st8" width="31.7" height="0.6"/>
								<rect x="56.8" y="73.7" class="st8" width="31.7" height="0.6"/>
								<rect x="56.8" y="77.1" class="st8" width="31.7" height="0.6"/>
								<rect x="56.8" y="80.5" class="st8" width="31.7" height="0.6"/>
								<rect x="56.8" y="83.9" class="st8" width="31.7" height="0.6"/>
								<rect x="56.8" y="87.3" class="st8" width="31.7" height="0.6"/>
								<rect x="56.8" y="90.8" class="st8" width="31.7" height="0.6"/>
								<rect x="56.8" y="94.2" class="st8" width="31.7" height="0.6"/>
								<rect x="56.8" y="97.6" class="st8" width="31.7" height="0.6"/>
								<rect x="56.8" y="101" class="st8" width="31.7" height="0.6"/>
							</g>
						</g>
						<g>
							<polygon class="st9" points="60,109.4 59.3,108.7 58.5,109.4 58.5,58.6 60,58.6 							"/>
						</g>
						<path class="st9" d="M58.5,58.6c0,0,0.2-2.7-2-2.1c0,0,1.6-1.1,3,0.5c0.5,0.5,0.5,1.6,0.5,1.6H58.5z"/>
					</g>
				</g>
			</g>
			<g>
				<circle class="st2" cx="162.4" cy="39.7" r="33.4"/>
				<circle class="st2" cx="179.9" cy="68.1" r="8.2"/>
				<circle class="st2" cx="187.9" cy="84.2" r="4.9"/>
				<g>
					<g>
						
							<rect x="140.1" y="18.7" transform="matrix(0.9986 -5.376647e-02 5.376647e-02 0.9986 -1.324 8.1111)" class="st10" width="20" height="20"/>
						
							<rect x="139.7" y="18.7" transform="matrix(0.9986 -5.376647e-02 5.376647e-02 0.9986 -0.9212 8.0785)" class="st11" width="20" height="5"/>
					</g>
				</g>
				<g>
					<g>
						
							<rect x="144.4" y="43.9" transform="matrix(0.9121 -0.4099 0.4099 0.9121 -8.5301 68.0119)" class="st12" width="20" height="20"/>
						
							<rect x="141.3" y="44.6" transform="matrix(0.9121 -0.4099 0.4099 0.9121 -5.9919 66.1474)" class="st13" width="20" height="5"/>
					</g>
				</g>
				<g>
					<g>
						
							<rect x="167.2" y="34.4" transform="matrix(0.9981 -6.125023e-02 6.125023e-02 0.9981 -2.3855 10.9335)" class="st14" width="20" height="20"/>
						
							<rect x="166.7" y="34.4" transform="matrix(0.9981 -6.125023e-02 6.125023e-02 0.9981 -1.927 10.8912)" class="st15" width="20" height="5"/>
					</g>
				</g>
				<g>
					<path class="st16" d="M134,40.3l-4,1.8c-0.1,0.1-0.3,0-0.3-0.1l-0.3-0.7c-0.1-0.1,0-0.3,0.1-0.3l4-1.8c0.1-0.1,0.3,0,0.3,0.1
						l0.3,0.7C134.2,40.1,134.2,40.2,134,40.3z"/>
					<path class="st17" d="M136.9,39.8l-4,1.8c-0.7,0.3-1.5,0-1.8-0.7v0c-0.3-0.7,0-1.5,0.7-1.8l4-1.8c0.7-0.3,1.5,0,1.8,0.7l0,0
						C137.9,38.7,137.6,39.5,136.9,39.8z"/>
					
						<rect x="149.1" y="13.1" transform="matrix(0.4075 0.9132 -0.9132 0.4075 118.7608 -118.5736)" class="st16" width="3.3" height="38.2"/>
					<path class="st5" d="M133.2,41.8l-1.3-2.9c-0.1-0.1,0-0.3,0.1-0.3l0.4-0.2c0.1-0.1,0.3,0,0.3,0.1l1.3,2.9
						c0.1,0.1,0,0.3-0.1,0.3l-0.4,0.2C133.4,42,133.3,41.9,133.2,41.8z"/>
					<path class="st18" d="M172.5,22.1l-5,0.8l1.3,3l3.9-3.1C173.1,22.6,172.9,22.1,172.5,22.1z"/>
					<path class="st19" d="M172.9,22.1l-1.1,0.2c-0.1,0-0.2,0.1-0.1,0.2l0.3,0.7c0,0.1,0.2,0.1,0.2,0.1l0.9-0.7
						C173.4,22.4,173.2,22,172.9,22.1z"/>
					
						<ellipse transform="matrix(0.916 -0.4012 0.4012 0.916 -3.3227 57.3128)" class="st16" cx="135.2" cy="36.6" rx="0.7" ry="0.7"/>
					<path class="st16" d="M134.9,35.9c1.5-0.6,6.9-1.8,7.8-2.2l0.1,0.2c-1.1,0.5-7.3,1.6-6.9,2.5"/>
					
						<ellipse transform="matrix(0.9405 -0.3399 0.3399 0.9405 -3.0117 50.5512)" class="st16" cx="142.8" cy="33.9" rx="0.1" ry="0.1"/>
				</g>
			</g>
			<g>
				<circle class="st2" cx="155.7" cy="145.3" r="45.3"/>
				<circle class="st2" cx="179.4" cy="183.7" r="11.1"/>
				<circle class="st2" cx="190.3" cy="205.6" r="6.6"/>
				<g>
					<g>
						<path class="st7" d="M177.2,167.3l0.5-26.3l-2.6-2.8l0.2-13.3l-2.6,0l-0.2,13.4l0,2.6l-0.3,16.9
							C172,161.7,173.9,165.3,177.2,167.3L177.2,167.3z"/>
						<path class="st7" d="M162.8,124.8c-0.1,3.4,2.7,6.3,6.1,6.4c3.4,0.1,6.3-2.7,6.4-6.1c0.1-3.4-2.7-6.3-6.1-6.4
							C165.7,118.6,162.8,121.3,162.8,124.8z M172.6,124.9c0,2-1.7,3.6-3.7,3.6c-2,0-3.6-1.7-3.6-3.7c0-2,1.7-3.6,3.7-3.6
							C171.1,121.3,172.7,122.9,172.6,124.9z"/>
						<g>
							<path class="st5" d="M177.2,167.3l0.7-42.3l-2.6,0l-0.2,13.4l-2.7,2.6l-0.3,16.9C172,161.7,173.9,165.3,177.2,167.3
								L177.2,167.3z"/>
							<path class="st5" d="M175.3,125c-0.1,3.4,2.7,6.3,6.1,6.4c3.4,0.1,6.3-2.7,6.4-6.1c0.1-3.4-2.7-6.3-6.1-6.4
								C178.2,118.8,175.3,121.5,175.3,125z M185.1,125.2c0,2-1.7,3.6-3.7,3.6c-2,0-3.6-1.7-3.6-3.7s1.7-3.6,3.7-3.6
								C183.6,121.5,185.2,123.2,185.1,125.2z"/>
							
								<ellipse transform="matrix(1.736461e-02 -0.9998 0.9998 1.736461e-02 29.3283 315.0585)" class="st4" cx="175" cy="142.6" rx="0.7" ry="0.7"/>
							<path class="st7" d="M176,146.9l-0.3,19.3c0.4,0.4,0.9,0.8,1.5,1.1l0,0l0.4-22.3C176.7,145.2,176.1,146,176,146.9z"/>
						</g>
					</g>
					<g>
						<path class="st20" d="M125.5,156.4l0-2.4c0-0.1,0.1-0.3,0.2-0.3l2.4,0c0.1,0,0.3,0.1,0.3,0.2l0,2.4c0,0.1-0.1,0.3-0.2,0.3
							l-2.4,0C125.7,156.6,125.5,156.5,125.5,156.4z"/>
						
							<rect x="144.7" y="137.3" transform="matrix(6.870501e-03 1 -1 6.870501e-03 300.2063 7.7765)" class="st3" width="3" height="35.4"/>
						<path class="st21" d="M128.5,155.1l0-1.2c0-0.1-0.1-0.3-0.3-0.2l-2.4,0c-0.1,0-0.3,0.1-0.2,0.3l0,1.2L128.5,155.1z"/>
						
							<rect x="145.7" y="137.3" transform="matrix(6.870501e-03 1 -1 6.870501e-03 300.2063 7.7765)" class="st9" width="1" height="35.4"/>
						<path class="st5" d="M127.2,156.7l0-3.1c0-0.2,0.1-0.3,0.3-0.3l0.7,0c0.2,0,0.3,0.1,0.3,0.3l0,3.1c0,0.2-0.1,0.3-0.3,0.3
							l-0.7,0C127.3,157,127.2,156.9,127.2,156.7z"/>
						<g>
							<polyline class="st22" points="163.9,154.4 163.4,153.9 163.9,153.4 							"/>
							<polyline class="st22" points="163.9,155.4 163.4,154.9 163.9,154.4 							"/>
							<polyline class="st22" points="163.9,156.4 163.4,155.9 163.9,155.4 							"/>
						</g>
						<path class="st22" d="M168.4,154.5l-4.5-1.1l0,3l4.5-1.2C168.8,155.2,168.8,154.6,168.4,154.5z"/>
						<path class="st4" d="M168.8,154.6l-1-0.2c-0.1,0-0.2,0-0.2,0.1l0,0.8c0,0.1,0.1,0.2,0.2,0.1l1-0.3
							C169.1,155.1,169.1,154.7,168.8,154.6z"/>
					</g>
					<g>
						
							<rect x="135.9" y="119.4" transform="matrix(1 -2.188656e-03 2.188656e-03 1 -0.2818 0.3185)" class="st10" width="19" height="19"/>
						
							<rect x="135.9" y="119.4" transform="matrix(1 -2.188656e-03 2.188656e-03 1 -0.2661 0.3185)" class="st11" width="19" height="4.7"/>
					</g>
					<g>
						<path class="st20" d="M120.3,148.1l0-2.4c0-0.1,0.1-0.3,0.3-0.3l2.4,0c0.1,0,0.3,0.1,0.3,0.3l0,2.4c0,0.1-0.1,0.3-0.3,0.3
							l-2.4,0C120.4,148.3,120.3,148.2,120.3,148.1z"/>
						
							<rect x="139.4" y="129.1" transform="matrix(-3.416073e-04 1 -1 -3.416073e-04 287.8634 5.9708)" class="st23" width="3" height="35.4"/>
						<path class="st21" d="M123.2,146.9l0-1.2c0-0.1-0.1-0.3-0.3-0.3l-2.4,0c-0.1,0-0.3,0.1-0.3,0.3l0,1.2L123.2,146.9z"/>
						
							<rect x="140.4" y="129.1" transform="matrix(-3.416073e-04 1 -1 -3.416073e-04 287.8634 5.9708)" class="st24" width="1" height="35.4"/>
						<path class="st5" d="M121.9,148.4l0-3.1c0-0.2,0.1-0.3,0.3-0.3l0.7,0c0.2,0,0.3,0.1,0.3,0.3l0,3.1c0,0.2-0.1,0.3-0.3,0.3
							l-0.7,0C122.1,148.7,121.9,148.6,121.9,148.4z"/>
						<g>
							<polyline class="st22" points="158.7,146.4 158.2,145.9 158.7,145.4 							"/>
							<polyline class="st22" points="158.7,147.4 158.2,146.9 158.7,146.4 							"/>
							<polyline class="st22" points="158.7,148.4 158.2,147.9 158.7,147.4 							"/>
						</g>
						<path class="st22" d="M163.2,146.5l-4.5-1.2l0,3l4.5-1.1C163.6,147.2,163.6,146.6,163.2,146.5z"/>
						<path class="st4" d="M163.6,146.6l-1-0.3c-0.1,0-0.2,0-0.2,0.1l0,0.8c0,0.1,0.1,0.2,0.2,0.1l1-0.2
							C163.8,147.1,163.8,146.7,163.6,146.6z"/>
					</g>
				</g>
			</g>
		</g>
	</g>
</g>
</svg>
