<?xml version="1.0" encoding="utf-8"?>
<!-- Generator: Adobe Illustrator 19.2.1, SVG Export Plug-In . SVG Version: 6.00 Build 0)  -->
<svg version="1.1" id="Layer_1" xmlns="http://www.w3.org/2000/svg" xmlns:xlink="http://www.w3.org/1999/xlink" x="0px" y="0px"
	 viewBox="0 0 200 214" style="enable-background:new 0 0 200 214;" xml:space="preserve">
<style type="text/css">
	.st0{clip-path:url(#SVGID_2_);fill:#E57E8A;}
	.st1{clip-path:url(#SVGID_2_);}
	.st2{fill:#575858;}
	.st3{fill:#F9C0B3;}
	.st4{fill:#DFA79D;}
	.st5{fill:#BB9163;}
	.st6{fill:#E39D91;}
	.st7{fill:#1D1E1D;}
	.st8{fill:#F9C0B5;}
	.st9{fill:#010101;}
	.st10{fill:#767677;}
	.st11{fill:#E57E8A;}
	.st12{clip-path:url(#SVGID_2_);fill:#F3F3F3;}
	.st13{clip-path:url(#SVGID_2_);fill:#8FCA86;}
</style>
<g>
	<g>
		<defs>
			<circle id="SVGID_1_" cx="100" cy="100" r="100"/>
		</defs>
		<clipPath id="SVGID_2_">
			<use xlink:href="#SVGID_1_"  style="overflow:visible;"/>
		</clipPath>
		<circle class="st0" cx="100" cy="100" r="100"/>
		<g class="st1">
			<path class="st2" d="M56.9,214.5l-34.8-10.1c-3.3-1-6.9-0.5-10,1.2L4.5,210c-36.8,21.1-70,48-98.2,79.7l-29.9,33.6l33.4,22.2
				c28.7,11.1,60.7,9.7,88.3-3.9l11.8-5.8L56.9,214.5z"/>
			<g>
				<path id="XMLID_450_" class="st6" d="M30.8,233.4L30.8,233.4c-7.7-4.8-10-15-5.2-22.6L38,191.2c1.5-2.4,4.8-3.2,7.2-1.6l19.1,12
					c2.4,1.5,3.2,4.8,1.6,7.2l-12.3,19.5C48.8,235.9,38.5,238.3,30.8,233.4z"/>
				<g>
					
						<ellipse transform="matrix(0.3231 -0.9464 0.9464 0.3231 -104.0888 178.2957)" class="st7" cx="72.6" cy="161.9" rx="33.1" ry="33.1"/>
					<g>
						
							<ellipse transform="matrix(1.017368e-03 -1 1 1.017368e-03 -126.9016 209.4534)" class="st8" cx="41.4" cy="168.2" rx="8.6" ry="5.5"/>
						
							<ellipse transform="matrix(0.6108 -0.7918 0.7918 0.6108 -110.7101 148.0251)" class="st8" cx="95.2" cy="186.6" rx="8.6" ry="5.5"/>
					</g>
					
						<ellipse id="XMLID_449_" transform="matrix(0.3341 -0.9425 0.9425 0.3341 -125.2882 182.4187)" class="st3" cx="66.5" cy="179.9" rx="37" ry="28.2"/>
					<g>
						<path class="st7" d="M65.3,161.7l-5.8-2c-2-0.7-3.1-2.9-2.4-4.9l0.1-0.3l9.5,3.2c1.1,0.4,1.7,1.6,1.3,2.6l0,0
							C67.6,161.5,66.4,162.1,65.3,161.7z"/>
						<path class="st7" d="M79.5,166.5l5.8,2c2,0.7,4.2-0.4,4.9-2.4l0.1-0.3l-9.5-3.2c-1.1-0.4-2.3,0.2-2.6,1.3l0,0
							C77.9,165,78.4,166.2,79.5,166.5z"/>
					</g>
					
						<ellipse transform="matrix(0.3231 -0.9464 0.9464 0.3231 -92.6937 157.1962)" class="st7" cx="63.5" cy="143.4" rx="10.5" ry="10.5"/>
					
						<ellipse transform="matrix(0.3231 -0.9464 0.9464 0.3231 -82.1096 175.2404)" class="st7" cx="81.4" cy="145" rx="10.5" ry="10.5"/>
					
						<ellipse transform="matrix(0.3231 -0.9464 0.9464 0.3231 -75.2062 155.7106)" class="st7" cx="71.2" cy="130.4" rx="7.4" ry="7.4"/>
					
						<ellipse transform="matrix(0.3231 -0.9464 0.9464 0.3231 -71.5269 167.9563)" class="st7" cx="81.6" cy="134" rx="7.4" ry="7.4"/>
					
						<ellipse transform="matrix(0.3231 -0.9464 0.9464 0.3231 -95.8732 143.8588)" class="st7" cx="52.6" cy="138.9" rx="7.4" ry="7.4"/>
					
						<ellipse transform="matrix(0.3231 -0.9464 0.9464 0.3231 -82.904 144.518)" class="st7" cx="59.6" cy="130.2" rx="10.5" ry="10.5"/>
					<path class="st9" d="M87.2,187.7l-6.8,7.5c-1.1,1.2-2.9,0.8-3.3-0.7l0,0c-0.7-2.6-2.6-4.6-5.1-5.5l-15.5-5.3
						c-2.5-0.8-5.2-0.4-7.4,1.2l0,0c-1.3,0.9-3,0.1-3.1-1.5l-0.8-10.1c-0.1-1.9-1.7-3.4-3.6-3.2l0,0c-1.6,0.1-3,1.3-3.5,2.8
						l-2.4,7.9c-2,6.5-1.7,13.5,0.9,19.6l0,0c2.9,6.9,8.4,12.1,15.2,14.4l4.6,1.6c6.8,2.3,14.4,1.6,20.8-2.1l0,0
						c5.8-3.3,10.3-8.6,12.7-15l2.9-7.7c0.6-1.5,0.2-3.3-1-4.4l0,0C90.6,186.1,88.5,186.2,87.2,187.7z"/>
					<g>
						<g id="XMLID_447_">
							
								<ellipse id="XMLID_448_" transform="matrix(0.3341 -0.9425 0.9425 0.3341 -107.552 190.4095)" class="st9" cx="81" cy="171.3" rx="1.8" ry="1.8"/>
						</g>
						<g id="XMLID_445_">
							
								<ellipse id="XMLID_446_" transform="matrix(0.3341 -0.9425 0.9425 0.3341 -113.8767 168.9051)" class="st9" cx="62.6" cy="165" rx="1.8" ry="1.8"/>
						</g>
					</g>
					<g id="XMLID_443_">
						<path id="XMLID_444_" class="st6" d="M69.9,184.5l-0.1,0c-0.3-0.1-0.5-0.4-0.4-0.6l3-8.6c0.7-2.1-0.4-4.4-2.5-5.2l0,0
							c-2.1-0.7-4.4,0.4-5.2,2.5l-3.1,8.6c-0.1,0.3-0.4,0.4-0.6,0.3l-0.4-0.1c-1.2-0.4-2.6,0.2-3,1.4l0,0c-0.4,1.2,0.3,2.5,1.4,2.9
							l0.8,0.3l1.1,0.4c0.5,0.2,0.8,0.7,0.6,1.2l0,0c-0.3,1,0.2,2.1,1.2,2.4l0,0c1,0.3,2.1-0.2,2.4-1.2l0,0c0.2-0.5,0.7-0.8,1.2-0.6
							l1.1,0.4l0.7,0.2c1.2,0.4,2.8-0.1,3.2-1.3l0,0C71.9,186.3,71.1,184.9,69.9,184.5z"/>
					</g>
					<path id="XMLID_442_" class="st6" d="M59.4,201.4c-2.2-0.8-4.1-2.2-5.4-4.2c-0.6-0.8-0.3-2,0.5-2.5c0.8-0.6,2-0.3,2.5,0.5
						c1.8,2.7,5.1,3.9,8.2,2.9c0.9-0.3,2,0.2,2.3,1.2c0.3,1-0.2,2-1.2,2.3C63.9,202.2,61.5,202.2,59.4,201.4"/>
				</g>
			</g>
			<g>
				<g>
					
						<ellipse transform="matrix(0.6341 -0.7732 0.7732 0.6341 -169.7515 98.1825)" class="st10" cx="18.9" cy="228.5" rx="24.6" ry="24.6"/>
				</g>
			</g>
			<polygon class="st3" points="32.3,162.6 33.5,176.5 14.1,166.2 			"/>
			<path class="st3" d="M99.2,194.4c0,0-4.5,4.1-5.4,7.4c-0.9,3.4,11.1,3.9,11.1,3.9L99.2,194.4z"/>
		</g>
		<circle class="st12" cx="121" cy="58.9" r="43.1"/>
		<circle class="st12" cx="98" cy="95.8" r="10.6"/>
		<circle class="st12" cx="87.6" cy="115.4" r="6.3"/>
		<path class="st13" d="M113.7,69.9c-1.4-0.4-2.4-1.8-2.3-3.2l0,0c0.1-0.9,0.3-1.8,0.5-2.6c0.3-1.2,0.8-2.3,1.4-3.4
			c0.5-1,1.2-1.9,2-2.7c0.8-0.8,1.7-1.5,2.6-2.1c1.1-0.7,2.2-1.3,3.3-1.8c1.3-0.6,2.5-1.2,3.5-1.7c0.9-0.5,1.8-1.1,2.7-1.7
			c0.7-0.6,1.4-1.2,1.9-2c0.5-0.8,0.9-1.7,1.2-2.6c0.2-0.8,0.3-1.7,0.2-2.5c-0.1-0.8-0.4-1.6-0.8-2.3c-0.4-0.7-1-1.4-1.7-1.8
			c-0.8-0.6-1.7-1-2.6-1.2c-2.3-0.6-4.7-0.8-7.1-0.6l-0.1,0c-2.7,0.3-5.2-1.8-5.5-4.5c-0.1-0.6,0-1.3,0.2-1.9l0.3-1.1
			c0.5-1.9,2.1-3.3,4-3.5c1.5-0.2,3.1-0.3,4.6-0.2c2.7,0.1,5.5,0.5,8.1,1.2c2.4,0.7,4.8,1.7,7,2.9c1.9,1.1,3.7,2.6,5,4.4
			c1.3,1.7,2.2,3.7,2.5,5.8c0.4,2.4,0.2,5-0.6,7.3c-0.4,1.6-1.1,3.1-1.9,4.4c-0.8,1.3-1.7,2.4-2.8,3.4c-1.2,1-2.4,2-3.8,2.7
			c-1.6,0.9-3.2,1.7-4.8,2.4c-1.2,0.5-2.3,1-3.2,1.5c-0.8,0.4-1.7,0.9-2.4,1.5c-0.7,0.5-1.2,1.2-1.7,1.9c-0.5,0.8-0.9,1.6-1.1,2.5
			c-0.1,0.7-0.2,1.4-0.3,2.1C121.4,72.3,113.7,69.9,113.7,69.9z M112.3,89.3c-2.1-0.5-3.8-1.8-5-3.6c-1-1.6-1.3-3.6-0.8-5.5
			c0.5-1.9,1.8-3.5,3.6-4.3c1.9-0.9,4.1-1,6.1-0.4c2,0.5,3.7,1.8,4.8,3.5c1.1,1.6,1.4,3.6,0.8,5.5c-0.5,1.9-1.8,3.5-3.6,4.4
			C116.4,89.8,114.3,89.9,112.3,89.3L112.3,89.3z"/>
	</g>
	<path class="st3" d="M120.6,192.7L121,205c0,1.1-0.7,2.1-1.7,2.4l0,0c-1.3,0.4-2.6-0.4-2.9-1.7l-2.4-10.1c-0.5-2,0.4-4.2,2.2-5.2
		l0,0c0.5-0.3,1.1-0.5,1.7-0.4l0,0C119.4,190,120.6,191.2,120.6,192.7z"/>
	<path class="st3" d="M114.5,193l1.3,12.3c0.1,1.1-0.5,2.1-1.6,2.5h0c-1.3,0.4-2.6-0.2-3-1.5l-3.1-9.9c-0.6-2,0.1-4.2,1.8-5.4l0,0
		c0.5-0.4,1.1-0.5,1.7-0.5h0C113.1,190.4,114.3,191.5,114.5,193z"/>
	<path class="st3" d="M110,195.5l0.1,12.4c0,1.1-0.7,2-1.8,2.3h0c-1.3,0.3-2.6-0.5-2.9-1.8l-2.2-10.2c-0.4-2.1,0.5-4.2,2.3-5.2l0,0
		c0.5-0.3,1.1-0.4,1.7-0.4h0C108.9,192.8,110,194,110,195.5z"/>
	<path class="st3" d="M104.8,195.8l0.1,12.4c0,1.1-0.7,2-1.8,2.3l0,0c-1.3,0.3-2.6-0.5-2.9-1.8l-2.2-10.2c-0.4-2.1,0.5-4.2,2.3-5.2
		l0,0c0.5-0.3,1.1-0.4,1.7-0.4h0C103.7,193.1,104.8,194.3,104.8,195.8z"/>
	<g>
		<path class="st3" d="M31.4,164.9l-8.8,8.7c-0.8,0.8-2,0.9-2.9,0.3l0,0c-1.1-0.7-1.5-2.2-0.7-3.3l5.8-8.6c1.2-1.7,3.3-2.5,5.3-2h0
			c0.6,0.2,1.1,0.5,1.5,1h0C32.6,162.2,32.5,163.9,31.4,164.9z"/>
		<path class="st3" d="M27.1,161l-8.1,9.3c-0.7,0.8-1.9,1-2.9,0.5h0c-1.2-0.6-1.6-2.1-1-3.3l5.2-9c1-1.8,3.1-2.8,5.2-2.3h0
			c0.6,0.1,1.1,0.4,1.6,0.9h0C28.1,158.2,28.1,159.9,27.1,161z"/>
		<path class="st3" d="M22.2,158.8l-9,8.5c-0.8,0.8-2,0.9-2.9,0.3h0c-1.1-0.7-1.4-2.2-0.6-3.3l6-8.5c1.2-1.7,3.4-2.5,5.4-1.8h0
			c0.6,0.2,1.1,0.5,1.5,1h0C23.4,156.1,23.3,157.8,22.2,158.8z"/>
		<path class="st3" d="M18.5,155.2l-9,8.5c-0.8,0.8-2,0.9-2.9,0.3h0c-1.1-0.7-1.4-2.2-0.6-3.3l6-8.5c1.2-1.7,3.4-2.5,5.4-1.8h0
			c0.6,0.2,1.1,0.5,1.5,1h0C19.7,152.5,19.5,154.2,18.5,155.2z"/>
	</g>
</g>
</svg>
